<mxfile host="app.diagrams.net" modified="2024-05-28T15:57:05.421Z" agent="Mozilla/5.0 (X11; Linux x86_64) AppleWebKit/537.36 (KHTML, like Gecko) Chrome/125.0.0.0 Safari/537.36" etag="_-ULtmfTXyJ0RiXelAFb" version="24.4.9" type="device">
  <diagram name="Страница — 1" id="0RTBNUHPuLH5qScBJfHA">
    <mxGraphModel dx="1434" dy="794" grid="1" gridSize="10" guides="1" tooltips="1" connect="1" arrows="1" fold="1" page="1" pageScale="1" pageWidth="1169" pageHeight="827" math="0" shadow="0">
      <root>
        <mxCell id="0" />
        <mxCell id="1" parent="0" />
        <mxCell id="R00NgGczH-Musmqq93QH-62" value="" style="rounded=0;whiteSpace=wrap;html=1;dashed=1;dashPattern=8 8;fillColor=#f5f5f5;fontColor=#333333;strokeColor=#666666;" vertex="1" parent="1">
          <mxGeometry x="200" y="50" width="930" height="540" as="geometry" />
        </mxCell>
        <mxCell id="R00NgGczH-Musmqq93QH-42" value="" style="rounded=0;whiteSpace=wrap;html=1;dashed=1;dashPattern=8 8;fillColor=#f5f5f5;fontColor=#333333;strokeColor=#666666;" vertex="1" parent="1">
          <mxGeometry x="240" y="250" width="850" height="130" as="geometry" />
        </mxCell>
        <mxCell id="R00NgGczH-Musmqq93QH-35" value="" style="rounded=0;whiteSpace=wrap;html=1;dashed=1;dashPattern=8 8;fillColor=#f5f5f5;fontColor=#333333;strokeColor=#666666;" vertex="1" parent="1">
          <mxGeometry x="890" y="440" width="180" height="110" as="geometry" />
        </mxCell>
        <mxCell id="R00NgGczH-Musmqq93QH-15" value="" style="rounded=0;whiteSpace=wrap;html=1;dashed=1;dashPattern=8 8;fillColor=#f5f5f5;fontColor=#333333;strokeColor=#666666;" vertex="1" parent="1">
          <mxGeometry x="460" y="85" width="180" height="110" as="geometry" />
        </mxCell>
        <mxCell id="R00NgGczH-Musmqq93QH-14" value="" style="rounded=0;whiteSpace=wrap;html=1;dashed=1;dashPattern=8 8;fillColor=#f5f5f5;fontColor=#333333;strokeColor=#666666;" vertex="1" parent="1">
          <mxGeometry x="240" y="85" width="180" height="110" as="geometry" />
        </mxCell>
        <mxCell id="R00NgGczH-Musmqq93QH-1" value="" style="rounded=1;whiteSpace=wrap;html=1;fillColor=#dae8fc;strokeColor=#6c8ebf;" vertex="1" parent="1">
          <mxGeometry x="40" y="100" width="120" height="60" as="geometry" />
        </mxCell>
        <mxCell id="R00NgGczH-Musmqq93QH-2" value="" style="rounded=1;whiteSpace=wrap;html=1;fillColor=#dae8fc;strokeColor=#6c8ebf;" vertex="1" parent="1">
          <mxGeometry x="50" y="110" width="120" height="60" as="geometry" />
        </mxCell>
        <mxCell id="R00NgGczH-Musmqq93QH-5" value="Bean Definitions" style="rounded=1;whiteSpace=wrap;html=1;fillColor=#dae8fc;strokeColor=#6c8ebf;" vertex="1" parent="1">
          <mxGeometry x="60" y="120" width="120" height="60" as="geometry" />
        </mxCell>
        <mxCell id="R00NgGczH-Musmqq93QH-7" value="" style="rounded=1;whiteSpace=wrap;html=1;fillColor=#dae8fc;strokeColor=#6c8ebf;" vertex="1" parent="1">
          <mxGeometry x="470" y="100" width="120" height="60" as="geometry" />
        </mxCell>
        <mxCell id="R00NgGczH-Musmqq93QH-8" value="" style="rounded=1;whiteSpace=wrap;html=1;fillColor=#dae8fc;strokeColor=#6c8ebf;" vertex="1" parent="1">
          <mxGeometry x="480" y="110" width="120" height="60" as="geometry" />
        </mxCell>
        <mxCell id="R00NgGczH-Musmqq93QH-47" style="edgeStyle=orthogonalEdgeStyle;rounded=0;orthogonalLoop=1;jettySize=auto;html=1;exitX=1;exitY=0.5;exitDx=0;exitDy=0;entryX=0;entryY=0.5;entryDx=0;entryDy=0;" edge="1" parent="1" source="R00NgGczH-Musmqq93QH-9" target="R00NgGczH-Musmqq93QH-20">
          <mxGeometry relative="1" as="geometry">
            <Array as="points">
              <mxPoint x="660" y="150" />
              <mxPoint x="660" y="220" />
              <mxPoint x="220" y="220" />
              <mxPoint x="220" y="320" />
            </Array>
          </mxGeometry>
        </mxCell>
        <mxCell id="R00NgGczH-Musmqq93QH-9" value="Sorted&lt;div&gt;Bean Definitions&lt;/div&gt;" style="rounded=1;whiteSpace=wrap;html=1;fillColor=#dae8fc;strokeColor=#6c8ebf;" vertex="1" parent="1">
          <mxGeometry x="490" y="120" width="120" height="60" as="geometry" />
        </mxCell>
        <mxCell id="R00NgGczH-Musmqq93QH-10" value="" style="rounded=1;whiteSpace=wrap;html=1;fillColor=#f8cecc;strokeColor=#b85450;" vertex="1" parent="1">
          <mxGeometry x="250" y="100" width="120" height="60" as="geometry" />
        </mxCell>
        <mxCell id="R00NgGczH-Musmqq93QH-11" value="" style="rounded=1;whiteSpace=wrap;html=1;fillColor=#f8cecc;strokeColor=#b85450;" vertex="1" parent="1">
          <mxGeometry x="260" y="110" width="120" height="60" as="geometry" />
        </mxCell>
        <mxCell id="R00NgGczH-Musmqq93QH-46" style="edgeStyle=orthogonalEdgeStyle;rounded=0;orthogonalLoop=1;jettySize=auto;html=1;exitX=1;exitY=0.5;exitDx=0;exitDy=0;" edge="1" parent="1" source="R00NgGczH-Musmqq93QH-12" target="R00NgGczH-Musmqq93QH-9">
          <mxGeometry relative="1" as="geometry" />
        </mxCell>
        <mxCell id="R00NgGczH-Musmqq93QH-12" value="BeanFactory&lt;div&gt;PostProcessor&lt;/div&gt;" style="rounded=1;whiteSpace=wrap;html=1;fillColor=#f8cecc;strokeColor=#b85450;" vertex="1" parent="1">
          <mxGeometry x="270" y="120" width="120" height="60" as="geometry" />
        </mxCell>
        <mxCell id="R00NgGczH-Musmqq93QH-48" style="edgeStyle=orthogonalEdgeStyle;rounded=0;orthogonalLoop=1;jettySize=auto;html=1;exitX=1;exitY=0.5;exitDx=0;exitDy=0;entryX=0;entryY=0.5;entryDx=0;entryDy=0;" edge="1" parent="1" source="R00NgGczH-Musmqq93QH-20" target="R00NgGczH-Musmqq93QH-21">
          <mxGeometry relative="1" as="geometry" />
        </mxCell>
        <mxCell id="R00NgGczH-Musmqq93QH-20" value="Constructor is called" style="rounded=1;whiteSpace=wrap;html=1;fillColor=#ffe6cc;strokeColor=#d79b00;" vertex="1" parent="1">
          <mxGeometry x="260" y="290" width="120" height="60" as="geometry" />
        </mxCell>
        <mxCell id="R00NgGczH-Musmqq93QH-21" value="Setters are called" style="rounded=1;whiteSpace=wrap;html=1;fillColor=#fff2cc;strokeColor=#d6b656;" vertex="1" parent="1">
          <mxGeometry x="420" y="290" width="120" height="60" as="geometry" />
        </mxCell>
        <mxCell id="R00NgGczH-Musmqq93QH-22" value="" style="rounded=1;whiteSpace=wrap;html=1;fillColor=#e1d5e7;strokeColor=#9673a6;" vertex="1" parent="1">
          <mxGeometry x="580" y="270" width="120" height="60" as="geometry" />
        </mxCell>
        <mxCell id="R00NgGczH-Musmqq93QH-23" value="" style="rounded=1;whiteSpace=wrap;html=1;fillColor=#e1d5e7;strokeColor=#9673a6;" vertex="1" parent="1">
          <mxGeometry x="590" y="280" width="120" height="60" as="geometry" />
        </mxCell>
        <mxCell id="R00NgGczH-Musmqq93QH-52" style="edgeStyle=orthogonalEdgeStyle;rounded=0;orthogonalLoop=1;jettySize=auto;html=1;exitX=1;exitY=0.5;exitDx=0;exitDy=0;entryX=0;entryY=0.5;entryDx=0;entryDy=0;" edge="1" parent="1" source="R00NgGczH-Musmqq93QH-24" target="R00NgGczH-Musmqq93QH-25">
          <mxGeometry relative="1" as="geometry" />
        </mxCell>
        <mxCell id="R00NgGczH-Musmqq93QH-24" value="Bean&lt;div&gt;PostProcessor&lt;/div&gt;&lt;div&gt;&lt;b&gt;beforeInit()&lt;/b&gt;&lt;/div&gt;" style="rounded=1;whiteSpace=wrap;html=1;fillColor=#e1d5e7;strokeColor=#9673a6;" vertex="1" parent="1">
          <mxGeometry x="600" y="290" width="120" height="60" as="geometry" />
        </mxCell>
        <mxCell id="R00NgGczH-Musmqq93QH-79" style="edgeStyle=orthogonalEdgeStyle;rounded=0;orthogonalLoop=1;jettySize=auto;html=1;exitX=0.5;exitY=0;exitDx=0;exitDy=0;entryX=0.5;entryY=1;entryDx=0;entryDy=0;dashed=1;dashPattern=8 8;" edge="1" parent="1" source="R00NgGczH-Musmqq93QH-25" target="R00NgGczH-Musmqq93QH-72">
          <mxGeometry relative="1" as="geometry" />
        </mxCell>
        <mxCell id="R00NgGczH-Musmqq93QH-25" value="Initialization callbacks" style="rounded=1;whiteSpace=wrap;html=1;fillColor=#d5e8d4;strokeColor=#82b366;" vertex="1" parent="1">
          <mxGeometry x="760" y="290" width="120" height="60" as="geometry" />
        </mxCell>
        <mxCell id="R00NgGczH-Musmqq93QH-26" value="" style="rounded=1;whiteSpace=wrap;html=1;fillColor=#e1d5e7;strokeColor=#9673a6;" vertex="1" parent="1">
          <mxGeometry x="920" y="270" width="120" height="60" as="geometry" />
        </mxCell>
        <mxCell id="R00NgGczH-Musmqq93QH-27" value="" style="rounded=1;whiteSpace=wrap;html=1;fillColor=#e1d5e7;strokeColor=#9673a6;" vertex="1" parent="1">
          <mxGeometry x="930" y="280" width="120" height="60" as="geometry" />
        </mxCell>
        <mxCell id="R00NgGczH-Musmqq93QH-28" value="Bean&lt;div&gt;PostProcessor&lt;/div&gt;&lt;div&gt;&lt;b&gt;afterInit()&lt;/b&gt;&lt;/div&gt;" style="rounded=1;whiteSpace=wrap;html=1;fillColor=#e1d5e7;strokeColor=#9673a6;" vertex="1" parent="1">
          <mxGeometry x="940" y="290" width="120" height="60" as="geometry" />
        </mxCell>
        <mxCell id="R00NgGczH-Musmqq93QH-78" style="edgeStyle=orthogonalEdgeStyle;rounded=0;orthogonalLoop=1;jettySize=auto;html=1;exitX=0.5;exitY=1;exitDx=0;exitDy=0;entryX=0.5;entryY=0;entryDx=0;entryDy=0;dashed=1;dashPattern=8 8;" edge="1" parent="1" source="R00NgGczH-Musmqq93QH-29" target="R00NgGczH-Musmqq93QH-73">
          <mxGeometry relative="1" as="geometry" />
        </mxCell>
        <mxCell id="R00NgGczH-Musmqq93QH-29" value="Destruction&lt;div&gt;callbacks&lt;/div&gt;" style="rounded=1;whiteSpace=wrap;html=1;fillColor=#d5e8d4;strokeColor=#82b366;" vertex="1" parent="1">
          <mxGeometry x="920" y="465" width="120" height="60" as="geometry" />
        </mxCell>
        <mxCell id="R00NgGczH-Musmqq93QH-31" value="" style="rounded=0;whiteSpace=wrap;html=1;dashed=1;dashPattern=8 8;fillColor=#f5f5f5;fontColor=#333333;strokeColor=#666666;" vertex="1" parent="1">
          <mxGeometry x="670" y="430" width="180" height="110" as="geometry" />
        </mxCell>
        <mxCell id="R00NgGczH-Musmqq93QH-32" value="" style="rounded=1;whiteSpace=wrap;html=1;fillColor=#dae8fc;strokeColor=#6c8ebf;" vertex="1" parent="1">
          <mxGeometry x="680" y="445" width="120" height="60" as="geometry" />
        </mxCell>
        <mxCell id="R00NgGczH-Musmqq93QH-33" value="" style="rounded=1;whiteSpace=wrap;html=1;fillColor=#dae8fc;strokeColor=#6c8ebf;" vertex="1" parent="1">
          <mxGeometry x="690" y="455" width="120" height="60" as="geometry" />
        </mxCell>
        <mxCell id="R00NgGczH-Musmqq93QH-57" style="edgeStyle=orthogonalEdgeStyle;rounded=0;orthogonalLoop=1;jettySize=auto;html=1;exitX=1;exitY=0.5;exitDx=0;exitDy=0;" edge="1" parent="1" source="R00NgGczH-Musmqq93QH-34" target="R00NgGczH-Musmqq93QH-29">
          <mxGeometry relative="1" as="geometry" />
        </mxCell>
        <mxCell id="R00NgGczH-Musmqq93QH-34" value="Beans" style="rounded=1;whiteSpace=wrap;html=1;fillColor=#dae8fc;strokeColor=#6c8ebf;" vertex="1" parent="1">
          <mxGeometry x="700" y="465" width="120" height="60" as="geometry" />
        </mxCell>
        <mxCell id="R00NgGczH-Musmqq93QH-45" style="edgeStyle=orthogonalEdgeStyle;rounded=0;orthogonalLoop=1;jettySize=auto;html=1;exitX=1;exitY=0.5;exitDx=0;exitDy=0;entryX=0;entryY=0.5;entryDx=0;entryDy=0;" edge="1" parent="1" source="R00NgGczH-Musmqq93QH-5" target="R00NgGczH-Musmqq93QH-12">
          <mxGeometry relative="1" as="geometry" />
        </mxCell>
        <mxCell id="R00NgGczH-Musmqq93QH-49" style="edgeStyle=orthogonalEdgeStyle;rounded=0;orthogonalLoop=1;jettySize=auto;html=1;exitX=1;exitY=0.5;exitDx=0;exitDy=0;entryX=0;entryY=0.5;entryDx=0;entryDy=0;" edge="1" parent="1" source="R00NgGczH-Musmqq93QH-21" target="R00NgGczH-Musmqq93QH-24">
          <mxGeometry relative="1" as="geometry" />
        </mxCell>
        <mxCell id="R00NgGczH-Musmqq93QH-53" style="edgeStyle=orthogonalEdgeStyle;rounded=0;orthogonalLoop=1;jettySize=auto;html=1;exitX=1;exitY=0.5;exitDx=0;exitDy=0;entryX=0;entryY=0.5;entryDx=0;entryDy=0;" edge="1" parent="1" source="R00NgGczH-Musmqq93QH-25" target="R00NgGczH-Musmqq93QH-28">
          <mxGeometry relative="1" as="geometry" />
        </mxCell>
        <mxCell id="R00NgGczH-Musmqq93QH-56" style="edgeStyle=orthogonalEdgeStyle;rounded=0;orthogonalLoop=1;jettySize=auto;html=1;exitX=1;exitY=0.5;exitDx=0;exitDy=0;entryX=0;entryY=0.5;entryDx=0;entryDy=0;" edge="1" parent="1" source="R00NgGczH-Musmqq93QH-28" target="R00NgGczH-Musmqq93QH-34">
          <mxGeometry relative="1" as="geometry">
            <Array as="points">
              <mxPoint x="1110" y="320" />
              <mxPoint x="1110" y="408" />
              <mxPoint x="650" y="408" />
              <mxPoint x="650" y="495" />
            </Array>
          </mxGeometry>
        </mxCell>
        <mxCell id="R00NgGczH-Musmqq93QH-64" value="IoC Container" style="text;html=1;align=center;verticalAlign=middle;whiteSpace=wrap;rounded=0;fontSize=36;" vertex="1" parent="1">
          <mxGeometry x="890" y="50" width="240" height="40" as="geometry" />
        </mxCell>
        <mxCell id="R00NgGczH-Musmqq93QH-65" value="For each Bean Definition" style="text;html=1;align=center;verticalAlign=middle;whiteSpace=wrap;rounded=0;fontSize=15;" vertex="1" parent="1">
          <mxGeometry x="240" y="250" width="180" height="30" as="geometry" />
        </mxCell>
        <mxCell id="R00NgGczH-Musmqq93QH-66" value="For each Singleton Bean" style="text;html=1;align=center;verticalAlign=middle;whiteSpace=wrap;rounded=0;fontSize=15;" vertex="1" parent="1">
          <mxGeometry x="890" y="435" width="180" height="30" as="geometry" />
        </mxCell>
        <mxCell id="R00NgGczH-Musmqq93QH-72" value="1. @PostConstruct&lt;div&gt;2. afterPropertiesSet() - InitializingBean&lt;/div&gt;&lt;div&gt;3. init-method - xml&lt;/div&gt;" style="rounded=0;whiteSpace=wrap;html=1;align=left;" vertex="1" parent="1">
          <mxGeometry x="710" y="110" width="220" height="60" as="geometry" />
        </mxCell>
        <mxCell id="R00NgGczH-Musmqq93QH-73" value="1. @PreDestroy&lt;div&gt;2. destroy() - DisposableBean&lt;/div&gt;&lt;div&gt;3. destroy-method - xml&lt;/div&gt;" style="rounded=0;whiteSpace=wrap;html=1;align=left;" vertex="1" parent="1">
          <mxGeometry x="870" y="645" width="220" height="60" as="geometry" />
        </mxCell>
      </root>
    </mxGraphModel>
  </diagram>
</mxfile>
